<?xml version="1.0" encoding="UTF-8"?>
<svg width="32.075mm" height="11.494mm" version="1.1" viewBox="0 0 32.075 11.494" xmlns="http://www.w3.org/2000/svg" xmlns:cc="http://creativecommons.org/ns#" xmlns:dc="http://purl.org/dc/elements/1.1/" xmlns:rdf="http://www.w3.org/1999/02/22-rdf-syntax-ns#">
<defs>
<filter id="b" x="-.17787" y="-.57058" width="1.3557" height="2.1412" color-interpolation-filters="sRGB">
<feGaussianBlur stdDeviation="1.223159"/>
</filter>
<filter id="a" x="-.17787" y="-.57058" width="1.3557" height="2.1412" color-interpolation-filters="sRGB">
<feGaussianBlur stdDeviation="1.223159"/>
</filter>
</defs>
<metadata>
<rdf:RDF>
<cc:Work rdf:about="">
<dc:format>image/svg+xml</dc:format>
<dc:type rdf:resource="http://purl.org/dc/dcmitype/StillImage"/>
<dc:title/>
</cc:Work>
</rdf:RDF>
</metadata>
<g transform="translate(310.84 -135.97)">
<rect x="-342.64" y="40.154" width="99.291" height="49.178" fill="#ed1313" fill-rule="evenodd"/>
<ellipse transform="matrix(1.4335 0 0 1.0434 126.86 -2.8135)" cx="-292.63" cy="64.843" rx="8.2519" ry="2.5725" fill="#af0000" fill-rule="evenodd" filter="url(#b)" opacity=".552"/>
<flowRoot transform="matrix(.26458 7.3932e-5 -7.3932e-5 .26458 -7.855 6.0984)" fill="#cdea01" font-family="Bahnschrift" font-size="14.667px" letter-spacing="0px" word-spacing="0px" style="line-height:1.25" xml:space="preserve"><flowRegion><rect x="-1121.3" y="219.44" width="266.68" height="210.11" fill="#cdea01"/></flowRegion><flowPara font-family="'Poplar Std'">KONSTANTYNOWIE</flowPara></flowRoot>
<g transform="translate(.50685)" fill="#fafafa">
<g transform="matrix(.26458 0 0 .26458 -1.1812 2.9766)" aria-label="SWIETA">
<path d="m-1114.9 225.37c0.1174 0 0.176-0.088 0.176-0.19067 0-1.7453-1.2173-3.2853-3.1826-3.2853-1.9654 0-3.08 1.628-3.08 3.124 0 0.99733 0.484 2.0973 1.4666 2.8893 0.9827 0.792 1.804 1.4373 1.804 1.7893 0 0.33733-0.132 0.46933-0.3373 0.46933-0.352 0-0.6013-0.63067-0.66-1.2173-0.015-0.132-0.073-0.19067-0.176-0.19067l-2.024 0.10267c-0.1173 0-0.176 0.0733-0.176 0.14666 0 2.3467 1.0267 3.96 3.256 3.96 1.9213 0 3.0947-1.5693 3.0947-3.5347 0-1.0853-0.7187-2.1413-1.672-2.7867-0.88-0.60133-1.5694-1.1293-1.5694-1.5987 0-0.14666 0.073-0.264 0.22-0.264 0.2054 0 0.352 0.176 0.44 0.528 0.029 0.11734 0.088 0.16134 0.176 0.16134z"/>
<path d="m-1114.3 221.92c-0.1027 0-0.176 0.0587-0.1614 0.19067l1.408 10.619c0.015 0.10266 0.1027 0.19066 0.2054 0.19066h2.1706c0.088 0 0.132-0.0733 0.1614-0.176l0.5133-3.52c0.015-0.132 0.059-0.24933 0.1173-0.24933 0.059 0 0.1027 0.10267 0.1174 0.23467l0.5573 3.5493c0.015 0.088 0.088 0.16133 0.176 0.16133h2.1413c0.088 0 0.176-0.0733 0.1907-0.22l1.364-10.575c0.015-0.11734-0.029-0.20534-0.176-0.20534h-2.376c-0.088 0-0.1467 0.0733-0.1613 0.176l-0.2934 3.4907c-0.015 0.16133-0.073 0.27867-0.132 0.27867s-0.1026-0.11734-0.1173-0.27867l-0.3813-3.5053c-0.015-0.088-0.1027-0.16134-0.176-0.16134h-1.496c-0.1027 0-0.1467 0.0733-0.176 0.19067l-0.352 3.476c-0.015 0.16133-0.073 0.27867-0.132 0.27867s-0.1027-0.11734-0.1174-0.27867l-0.3226-3.476c-0.015-0.11733-0.1174-0.19067-0.22-0.19067z"/>
<path d="m-1102.4 232.92c0.1027 0 0.176-0.10266 0.176-0.19066v-10.663c0-0.088-0.073-0.14667-0.176-0.14667h-2.508c-0.073 0-0.132 0.0733-0.132 0.14667v10.633c0 0.11734 0.088 0.22 0.1907 0.22z"/>
<path d="m-1101.7 232.73c0 0.10266 0.073 0.19066 0.1613 0.19066h5.2507c0.088 0 0.1613-0.0733 0.1613-0.16133v-2.728c0-0.0733-0.059-0.14667-0.1613-0.14667h-2.5373c-0.044 0-0.088-0.044-0.088-0.10266v-0.86534c0-0.0733 0.044-0.11733 0.1026-0.11733h1.188c0.059 0 0.1174-0.0587 0.1174-0.132v-2.6693c0-0.0587-0.044-0.10267-0.1027-0.10267h-1.1587c-0.044 0-0.1026-0.044-0.1026-0.10267v-0.82133c0-0.0587 0.044-0.10267 0.1026-0.10267h2.4494c0.088 0 0.1613-0.0587 0.1613-0.14666v-2.64c0-0.088-0.059-0.16134-0.1467-0.16134h-5.2066c-0.1027 0-0.1907 0.10267-0.1907 0.19067z"/>
<path d="m-1091 232.92c0.1173 0 0.2053-0.088 0.2053-0.19066v-7.6413c0-0.132 0.073-0.20533 0.176-0.20533h1.4667c0.1173 0 0.2053-0.088 0.2053-0.20533v-2.5813c0-0.11733-0.088-0.176-0.1907-0.176h-6.2773c-0.088 0-0.132 0.0587-0.132 0.14667v2.6107c0 0.088 0.1027 0.20533 0.1907 0.20533h1.4666c0.1027 0 0.1907 0.0733 0.1907 0.176v7.656c0 0.11733 0.1027 0.20533 0.2053 0.20533z"/>
<path d="m-1087.6 221.92c-0.088 0-0.1614 0.10267-0.176 0.176l-1.9654 10.575c-0.029 0.14667 0.044 0.24933 0.176 0.24933h2.42c0.073 0 0.176-0.0587 0.1907-0.16133l0.2787-2.156c0.015-0.088 0.073-0.14667 0.132-0.14667h0.792c0.073 0 0.132 0.044 0.1466 0.11734l0.2934 2.2c0.015 0.088 0.1026 0.14666 0.1906 0.14666h2.376c0.1614 0 0.2347-0.16133 0.2054-0.32266l-2.0094-10.487c-0.015-0.10267-0.088-0.19067-0.1906-0.19067zm1.76 6.9373c0.015 0.132-0.029 0.132-0.4987 0.132-0.073 0-0.1027-0.0733-0.088-0.14667l0.1907-1.3933c0.029-0.23467 0.059-0.33734 0.1026-0.33734 0.044 0 0.073 0.132 0.1027 0.33734z"/>
</g>
<path transform="rotate(14.55)" d="m-272.22 133.58h0.34254v0.61421h-0.34254z" fill-rule="evenodd"/>
<path transform="rotate(14.55)" d="m-266.03 135.51h0.34254v0.61421h-0.34254z" fill-rule="evenodd"/>
</g>
<g transform="translate(0 10.424)" fill="#fafafa"></g>
<flowRoot transform="matrix(.11179 0 0 .11179 -167.29 39.246)" fill="#f9f9f9" font-family="Bahnschrift" font-size="14.667px" letter-spacing="0px" stroke="#ed1313" stroke-width=".51961" word-spacing="0px" style="line-height:1.25" xml:space="preserve"><flowRegion><rect x="-1121.3" y="219.44" width="266.68" height="210.11" fill="#f9f9f9" stroke="#ed1313" stroke-width=".51961"/></flowRegion><flowPara font-family="'Poplar Std'">w</flowPara></flowRoot>
<ellipse transform="matrix(1.4335 0 0 1.0434 124.69 74.06)" cx="-292.63" cy="64.843" rx="8.2519" ry="2.5725" fill="#af0000" fill-rule="evenodd" filter="url(#a)" opacity=".552"/>
<flowRoot transform="matrix(.26458 7.3932e-5 -7.3932e-5 .26458 -10.026 82.972)" fill="#cdea01" font-family="Bahnschrift" font-size="14.667px" letter-spacing="0px" word-spacing="0px" style="line-height:1.25" xml:space="preserve"><flowRegion><rect x="-1121.3" y="219.44" width="266.68" height="210.11" fill="#cdea01"/></flowRegion><flowPara font-family="'Poplar Std'">KONSTANTYNOWIE</flowPara></flowRoot>
<g transform="translate(-1.6647 76.873)" fill="#fafafa">
<g transform="matrix(.26458 0 0 .26458 -1.1812 2.9766)" aria-label="SWIETA">
<path d="m-1114.9 225.37c0.1174 0 0.176-0.088 0.176-0.19067 0-1.7453-1.2173-3.2853-3.1826-3.2853-1.9654 0-3.08 1.628-3.08 3.124 0 0.99733 0.484 2.0973 1.4666 2.8893 0.9827 0.792 1.804 1.4373 1.804 1.7893 0 0.33733-0.132 0.46933-0.3373 0.46933-0.352 0-0.6013-0.63067-0.66-1.2173-0.015-0.132-0.073-0.19067-0.176-0.19067l-2.024 0.10267c-0.1173 0-0.176 0.0733-0.176 0.14666 0 2.3467 1.0267 3.96 3.256 3.96 1.9213 0 3.0947-1.5693 3.0947-3.5347 0-1.0853-0.7187-2.1413-1.672-2.7867-0.88-0.60133-1.5694-1.1293-1.5694-1.5987 0-0.14666 0.073-0.264 0.22-0.264 0.2054 0 0.352 0.176 0.44 0.528 0.029 0.11734 0.088 0.16134 0.176 0.16134z"/>
<path d="m-1114.3 221.92c-0.1027 0-0.176 0.0587-0.1614 0.19067l1.408 10.619c0.015 0.10266 0.1027 0.19066 0.2054 0.19066h2.1706c0.088 0 0.132-0.0733 0.1614-0.176l0.5133-3.52c0.015-0.132 0.059-0.24933 0.1173-0.24933 0.059 0 0.1027 0.10267 0.1174 0.23467l0.5573 3.5493c0.015 0.088 0.088 0.16133 0.176 0.16133h2.1413c0.088 0 0.176-0.0733 0.1907-0.22l1.364-10.575c0.015-0.11734-0.029-0.20534-0.176-0.20534h-2.376c-0.088 0-0.1467 0.0733-0.1613 0.176l-0.2934 3.4907c-0.015 0.16133-0.073 0.27867-0.132 0.27867s-0.1026-0.11734-0.1173-0.27867l-0.3813-3.5053c-0.015-0.088-0.1027-0.16134-0.176-0.16134h-1.496c-0.1027 0-0.1467 0.0733-0.176 0.19067l-0.352 3.476c-0.015 0.16133-0.073 0.27867-0.132 0.27867s-0.1027-0.11734-0.1174-0.27867l-0.3226-3.476c-0.015-0.11733-0.1174-0.19067-0.22-0.19067z"/>
<path d="m-1102.4 232.92c0.1027 0 0.176-0.10266 0.176-0.19066v-10.663c0-0.088-0.073-0.14667-0.176-0.14667h-2.508c-0.073 0-0.132 0.0733-0.132 0.14667v10.633c0 0.11734 0.088 0.22 0.1907 0.22z"/>
<path d="m-1101.7 232.73c0 0.10266 0.073 0.19066 0.1613 0.19066h5.2507c0.088 0 0.1613-0.0733 0.1613-0.16133v-2.728c0-0.0733-0.059-0.14667-0.1613-0.14667h-2.5373c-0.044 0-0.088-0.044-0.088-0.10266v-0.86534c0-0.0733 0.044-0.11733 0.1026-0.11733h1.188c0.059 0 0.1174-0.0587 0.1174-0.132v-2.6693c0-0.0587-0.044-0.10267-0.1027-0.10267h-1.1587c-0.044 0-0.1026-0.044-0.1026-0.10267v-0.82133c0-0.0587 0.044-0.10267 0.1026-0.10267h2.4494c0.088 0 0.1613-0.0587 0.1613-0.14666v-2.64c0-0.088-0.059-0.16134-0.1467-0.16134h-5.2066c-0.1027 0-0.1907 0.10267-0.1907 0.19067z"/>
<path d="m-1091 232.92c0.1173 0 0.2053-0.088 0.2053-0.19066v-7.6413c0-0.132 0.073-0.20533 0.176-0.20533h1.4667c0.1173 0 0.2053-0.088 0.2053-0.20533v-2.5813c0-0.11733-0.088-0.176-0.1907-0.176h-6.2773c-0.088 0-0.132 0.0587-0.132 0.14667v2.6107c0 0.088 0.1027 0.20533 0.1907 0.20533h1.4666c0.1027 0 0.1907 0.0733 0.1907 0.176v7.656c0 0.11733 0.1027 0.20533 0.2053 0.20533z"/>
<path d="m-1087.6 221.92c-0.088 0-0.1614 0.10267-0.176 0.176l-1.9654 10.575c-0.029 0.14667 0.044 0.24933 0.176 0.24933h2.42c0.073 0 0.176-0.0587 0.1907-0.16133l0.2787-2.156c0.015-0.088 0.073-0.14667 0.132-0.14667h0.792c0.073 0 0.132 0.044 0.1466 0.11734l0.2934 2.2c0.015 0.088 0.1026 0.14666 0.1906 0.14666h2.376c0.1614 0 0.2347-0.16133 0.2054-0.32266l-2.0094-10.487c-0.015-0.10267-0.088-0.19067-0.1906-0.19067zm1.76 6.9373c0.015 0.132-0.029 0.132-0.4987 0.132-0.073 0-0.1027-0.0733-0.088-0.14667l0.1907-1.3933c0.029-0.23467 0.059-0.33734 0.1026-0.33734 0.044 0 0.073 0.132 0.1027 0.33734z"/>
</g>
<path transform="rotate(14.55)" d="m-272.22 133.58h0.34254v0.61421h-0.34254z" fill-rule="evenodd"/>
<path transform="rotate(14.55)" d="m-266.03 135.51h0.34254v0.61421h-0.34254z" fill-rule="evenodd"/>
</g>
<flowRoot transform="matrix(.11179 0 0 .11179 -169.46 116.12)" fill="#f9f9f9" font-family="Bahnschrift" font-size="14.667px" letter-spacing="0px" stroke="#ed1313" stroke-width=".51961" word-spacing="0px" style="line-height:1.25" xml:space="preserve"><flowRegion><rect x="-1121.3" y="219.44" width="266.68" height="210.11" fill="#f9f9f9" stroke="#ed1313" stroke-width=".51961"/></flowRegion><flowPara font-family="'Poplar Std'">w</flowPara></flowRoot>
</g>
</svg>
